<?xml version="1.0" encoding="UTF-8"?><!DOCTYPE svg PUBLIC "-//W3C//DTD SVG 1.1//EN" "http://www.w3.org/Graphics/SVG/1.1/DTD/svg11.dtd"><svg xmlns="http://www.w3.org/2000/svg"><symbol id="icon-facebook" viewBox="0 0 10 19">
    <title>
        facebook
    </title>
    <path d="M9.766.157v2.946H8.014c-.64 0-1.071.134-1.295.402-.223.268-.335.67-.335 1.205v2.11h3.27l-.435 3.303H6.384v8.471H2.97v-8.47H.123V6.82H2.97V4.387c0-1.384.387-2.457 1.161-3.22C4.904.404 5.934.023 7.222.023c1.093 0 1.941.045 2.544.134z" fill-rule="evenodd"/>
</symbol><symbol id="icon-google-plus" viewBox="0 0 56.693 56.693">
    <path d="M52.218 25.852h-7.512v-7.51c0-.573-.465-1.039-1.037-1.039H41.53a1.04 1.04 0 0 0-1.041 1.039v7.51h-7.512c-.572 0-1.039.467-1.039 1.041v2.139a1.04 1.04 0 0 0 1.039 1.039h7.512v7.514a1.04 1.04 0 0 0 1.041 1.039h2.139c.572 0 1.037-.465 1.037-1.039V30.07h7.512a1.04 1.04 0 0 0 1.039-1.039v-2.139a1.04 1.04 0 0 0-1.039-1.04z"/>
    <path d="M26.974 32.438c-1.58-1.119-3.016-2.76-3.041-3.264 0-.918.082-1.357 2.141-2.961 2.662-2.084 4.128-4.824 4.128-7.719 0-2.625-.802-4.957-2.167-6.595h1.059c.219 0 .434-.068.609-.196l2.955-2.141c.367-.263.521-.732.381-1.161a1.042 1.042 0 0 0-.988-.72H18.835c-1.446 0-2.915.255-4.357.751-4.816 1.661-8.184 5.765-8.184 9.978 0 5.969 4.624 10.493 10.805 10.635a5.623 5.623 0 0 0-.182 1.396c0 .92.233 1.791.713 2.633h-.17c-5.892 0-11.21 2.891-13.229 7.193-.526 1.119-.794 2.25-.794 3.367a6.33 6.33 0 0 0 .826 3.113c1.269 2.27 3.994 4.031 7.677 4.961 1.901.48 3.944.725 6.065.725 1.906 0 3.723-.246 5.403-.732 5.238-1.521 8.625-5.377 8.625-9.828-.001-4.271-1.374-6.828-5.059-9.435zm-16.691 9.777c0-3.107 3.947-5.832 8.446-5.832h.121c.979.012 1.934.156 2.834.432.309.213.607.416.893.611 2.084 1.42 3.461 2.357 3.844 3.861.09.379.135.758.135 1.125 0 3.869-2.885 5.83-8.578 5.83-4.315 0-7.695-2.646-7.695-6.027zm4.094-29.357c.703-.803 1.624-1.227 2.658-1.227l.117.002c2.921.086 5.716 3.341 6.23 7.256.289 2.192-.199 4.253-1.301 5.509-.705.805-1.613 1.229-2.689 1.229h-.049c-2.861-.088-5.716-3.467-6.227-7.377-.287-2.186.173-4.151 1.261-5.392z"/>
</symbol><symbol id="icon-twitter" viewBox="0 0 56.693 56.693">
    <path d="M52.837 15.065a20.11 20.11 0 0 1-5.805 1.591 10.125 10.125 0 0 0 4.444-5.592 20.232 20.232 0 0 1-6.418 2.454 10.093 10.093 0 0 0-7.377-3.192c-5.581 0-10.106 4.525-10.106 10.107 0 .791.089 1.562.262 2.303-8.4-.422-15.848-4.445-20.833-10.56a10.055 10.055 0 0 0-1.368 5.082c0 3.506 1.784 6.6 4.496 8.412a10.078 10.078 0 0 1-4.578-1.265l-.001.128c0 4.896 3.484 8.98 8.108 9.91a10.162 10.162 0 0 1-4.565.172c1.287 4.015 5.019 6.938 9.441 7.019a20.276 20.276 0 0 1-12.552 4.327c-.815 0-1.62-.048-2.411-.142a28.6 28.6 0 0 0 15.493 4.541c18.591 0 28.756-15.4 28.756-28.756 0-.438-.009-.875-.028-1.309a20.47 20.47 0 0 0 5.042-5.23z"/>
</symbol><symbol id="icon-view" viewBox="0 0 28.648 29.484">
    <path d="M27.598 12.929c-2.763-2.246-7.408-5.511-13.256-5.621h-.036c-5.842.112-10.494 3.375-13.254 5.621-.132.109-1.036.8-1.052 1.687-.011.624.28 1.085.699 1.47 2.255 2.182 7.176 6.059 13.609 6.088v.002h.036v-.002c6.445-.029 11.354-3.906 13.607-6.088.418-.385.708-.846.697-1.47-.016-.887-.918-1.578-1.05-1.687zm-13.272 7.567a5.755 5.755 0 1 1 0-11.511 5.75 5.75 0 0 1 5.718 5.755 5.75 5.75 0 0 1-5.718 5.756z"/>
    <path d="M14.344 12.503l-.018-.001h-.018v.001a2.242 2.242 0 0 0-2.186 2.237c0 1.217.975 2.208 2.186 2.235v.002l.018-.002.018.002v-.002a2.238 2.238 0 0 0 0-4.472z"/>
</symbol></svg>